<mxfile host="app.diagrams.net" modified="2022-08-31T16:49:15.853Z" agent="5.0 (Windows NT 10.0; Win64; x64) AppleWebKit/537.36 (KHTML, like Gecko) Chrome/104.0.0.0 Safari/537.36" etag="JbdVP6LkVfcmsN1SbC6q" version="20.2.7" type="github" pages="2">
  <diagram id="C5RBs43oDa-KdzZeNtuy" name="Gruppe A Anwendungsfalldiagramm">
    <mxGraphModel dx="2062" dy="754" grid="1" gridSize="10" guides="1" tooltips="1" connect="1" arrows="1" fold="1" page="1" pageScale="1" pageWidth="827" pageHeight="1169" math="0" shadow="0">
      <root>
        <mxCell id="WIyWlLk6GJQsqaUBKTNV-0" />
        <mxCell id="WIyWlLk6GJQsqaUBKTNV-1" parent="WIyWlLk6GJQsqaUBKTNV-0" />
        <mxCell id="5VB_H_C6yEA49fqEJ_je-0" value="Bibi Mitarbeiter/in" style="shape=umlActor;verticalLabelPosition=bottom;verticalAlign=top;html=1;outlineConnect=0;" parent="WIyWlLk6GJQsqaUBKTNV-1" vertex="1">
          <mxGeometry x="100" y="130" width="30" height="60" as="geometry" />
        </mxCell>
        <mxCell id="5VB_H_C6yEA49fqEJ_je-1" style="edgeStyle=orthogonalEdgeStyle;rounded=0;orthogonalLoop=1;jettySize=auto;html=1;exitX=0.5;exitY=0;exitDx=0;exitDy=0;exitPerimeter=0;" parent="WIyWlLk6GJQsqaUBKTNV-1" source="5VB_H_C6yEA49fqEJ_je-2" target="5VB_H_C6yEA49fqEJ_je-0" edge="1">
          <mxGeometry relative="1" as="geometry">
            <mxPoint x="115" y="240" as="targetPoint" />
            <mxPoint x="115" y="350" as="sourcePoint" />
          </mxGeometry>
        </mxCell>
        <mxCell id="5VB_H_C6yEA49fqEJ_je-2" value="Student" style="shape=umlActor;verticalLabelPosition=bottom;verticalAlign=top;html=1;outlineConnect=0;" parent="WIyWlLk6GJQsqaUBKTNV-1" vertex="1">
          <mxGeometry x="100" y="480" width="30" height="60" as="geometry" />
        </mxCell>
        <mxCell id="5VB_H_C6yEA49fqEJ_je-3" value="&lt;div style=&quot;&quot;&gt;&lt;span style=&quot;background-color: initial; line-height: 1.2;&quot;&gt;Arbeitsplatz reservieren&lt;/span&gt;&lt;/div&gt;" style="whiteSpace=wrap;html=1;aspect=fixed;horizontal=1;verticalAlign=bottom;labelPosition=center;verticalLabelPosition=top;align=center;" parent="WIyWlLk6GJQsqaUBKTNV-1" vertex="1">
          <mxGeometry x="200" y="40" width="570" height="570" as="geometry" />
        </mxCell>
        <mxCell id="5VB_H_C6yEA49fqEJ_je-4" value="Arbeitsplätze verwalten" style="ellipse;whiteSpace=wrap;html=1;" parent="WIyWlLk6GJQsqaUBKTNV-1" vertex="1">
          <mxGeometry x="350" y="120" width="120" height="80" as="geometry" />
        </mxCell>
        <mxCell id="5VB_H_C6yEA49fqEJ_je-5" value="Anmelden" style="ellipse;whiteSpace=wrap;html=1;" parent="WIyWlLk6GJQsqaUBKTNV-1" vertex="1">
          <mxGeometry x="230" y="220" width="120" height="80" as="geometry" />
        </mxCell>
        <mxCell id="5VB_H_C6yEA49fqEJ_je-11" value="" style="edgeStyle=orthogonalEdgeStyle;rounded=0;orthogonalLoop=1;jettySize=auto;html=1;" parent="WIyWlLk6GJQsqaUBKTNV-1" source="5VB_H_C6yEA49fqEJ_je-6" target="5VB_H_C6yEA49fqEJ_je-4" edge="1">
          <mxGeometry relative="1" as="geometry" />
        </mxCell>
        <mxCell id="5VB_H_C6yEA49fqEJ_je-6" value="Student auswählen" style="ellipse;whiteSpace=wrap;html=1;" parent="WIyWlLk6GJQsqaUBKTNV-1" vertex="1">
          <mxGeometry x="350" y="270" width="120" height="80" as="geometry" />
        </mxCell>
        <mxCell id="5VB_H_C6yEA49fqEJ_je-13" style="rounded=0;orthogonalLoop=1;jettySize=auto;html=1;entryX=1;entryY=1;entryDx=0;entryDy=0;" parent="WIyWlLk6GJQsqaUBKTNV-1" source="5VB_H_C6yEA49fqEJ_je-7" target="5VB_H_C6yEA49fqEJ_je-4" edge="1">
          <mxGeometry relative="1" as="geometry" />
        </mxCell>
        <mxCell id="5VB_H_C6yEA49fqEJ_je-7" value="Arbeitsplatz reservieren / &lt;br&gt;buchen" style="ellipse;whiteSpace=wrap;html=1;" parent="WIyWlLk6GJQsqaUBKTNV-1" vertex="1">
          <mxGeometry x="484" y="220" width="120" height="80" as="geometry" />
        </mxCell>
        <mxCell id="5VB_H_C6yEA49fqEJ_je-8" value="Reservierung bestätigen via &lt;br&gt;E-Mail" style="ellipse;whiteSpace=wrap;html=1;" parent="WIyWlLk6GJQsqaUBKTNV-1" vertex="1">
          <mxGeometry x="620" y="120" width="120" height="80" as="geometry" />
        </mxCell>
        <mxCell id="5VB_H_C6yEA49fqEJ_je-9" value="" style="endArrow=classic;html=1;rounded=0;exitX=0.5;exitY=0;exitDx=0;exitDy=0;entryX=0;entryY=1;entryDx=0;entryDy=0;" parent="WIyWlLk6GJQsqaUBKTNV-1" source="5VB_H_C6yEA49fqEJ_je-5" target="5VB_H_C6yEA49fqEJ_je-4" edge="1">
          <mxGeometry width="50" height="50" relative="1" as="geometry">
            <mxPoint x="300" y="210" as="sourcePoint" />
            <mxPoint x="350" y="160" as="targetPoint" />
          </mxGeometry>
        </mxCell>
        <mxCell id="5VB_H_C6yEA49fqEJ_je-16" value="" style="endArrow=none;dashed=1;html=1;strokeWidth=1;rounded=0;entryX=0;entryY=1;entryDx=0;entryDy=0;exitX=1;exitY=0;exitDx=0;exitDy=0;startArrow=open;startFill=0;" parent="WIyWlLk6GJQsqaUBKTNV-1" source="5VB_H_C6yEA49fqEJ_je-7" target="5VB_H_C6yEA49fqEJ_je-8" edge="1">
          <mxGeometry width="50" height="50" relative="1" as="geometry">
            <mxPoint x="580" y="230" as="sourcePoint" />
            <mxPoint x="630" y="180" as="targetPoint" />
          </mxGeometry>
        </mxCell>
        <mxCell id="5VB_H_C6yEA49fqEJ_je-17" value="extend" style="edgeLabel;html=1;align=center;verticalAlign=middle;resizable=0;points=[];" parent="5VB_H_C6yEA49fqEJ_je-16" vertex="1" connectable="0">
          <mxGeometry x="0.5144" y="-3" relative="1" as="geometry">
            <mxPoint y="19" as="offset" />
          </mxGeometry>
        </mxCell>
        <mxCell id="5VB_H_C6yEA49fqEJ_je-22" value="extend" style="edgeStyle=none;rounded=0;orthogonalLoop=1;jettySize=auto;html=1;dashed=1;endArrow=open;endFill=0;" parent="WIyWlLk6GJQsqaUBKTNV-1" source="5VB_H_C6yEA49fqEJ_je-20" target="5VB_H_C6yEA49fqEJ_je-21" edge="1">
          <mxGeometry relative="1" as="geometry" />
        </mxCell>
        <mxCell id="5VB_H_C6yEA49fqEJ_je-20" value="E-Mail Bestätigung übermitteln" style="ellipse;whiteSpace=wrap;html=1;" parent="WIyWlLk6GJQsqaUBKTNV-1" vertex="1">
          <mxGeometry x="240" y="470" width="120" height="80" as="geometry" />
        </mxCell>
        <mxCell id="5VB_H_C6yEA49fqEJ_je-21" value="E-Mail durch Link bestätigen" style="ellipse;whiteSpace=wrap;html=1;" parent="WIyWlLk6GJQsqaUBKTNV-1" vertex="1">
          <mxGeometry x="620" y="470" width="120" height="80" as="geometry" />
        </mxCell>
        <mxCell id="5VB_H_C6yEA49fqEJ_je-25" value="" style="edgeStyle=none;rounded=0;orthogonalLoop=1;jettySize=auto;html=1;startArrow=none;startFill=0;endArrow=none;endFill=0;strokeWidth=1;entryX=0;entryY=0.5;entryDx=0;entryDy=0;" parent="WIyWlLk6GJQsqaUBKTNV-1" source="5VB_H_C6yEA49fqEJ_je-2" target="5VB_H_C6yEA49fqEJ_je-20" edge="1">
          <mxGeometry relative="1" as="geometry" />
        </mxCell>
      </root>
    </mxGraphModel>
  </diagram>
  <diagram id="CBliL1QiqWCcgwVPECsd" name="Gruppe A Klassendiagramm">
    <mxGraphModel dx="2062" dy="754" grid="1" gridSize="10" guides="1" tooltips="1" connect="1" arrows="1" fold="1" page="1" pageScale="1" pageWidth="827" pageHeight="1169" math="0" shadow="0">
      <root>
        <mxCell id="0" />
        <mxCell id="1" parent="0" />
        <mxCell id="BESosxewP5LfGgsGNC5o-8" value="" style="edgeStyle=none;rounded=0;orthogonalLoop=1;jettySize=auto;html=1;startArrow=none;startFill=0;endArrow=none;endFill=0;strokeWidth=1;" edge="1" parent="1" source="BESosxewP5LfGgsGNC5o-4" target="BESosxewP5LfGgsGNC5o-5">
          <mxGeometry relative="1" as="geometry" />
        </mxCell>
        <mxCell id="BESosxewP5LfGgsGNC5o-4" value="&lt;p style=&quot;margin:0px;margin-top:4px;text-align:center;text-decoration:underline;&quot;&gt;&lt;b&gt;maxMuster:Student&lt;/b&gt;&lt;/p&gt;&lt;hr&gt;&lt;p style=&quot;margin:0px;margin-left:8px;&quot;&gt;vorname = &quot;Max&quot;&lt;br&gt;name = &quot;Muster&quot;&lt;br&gt;gebDat = TT-MM-JJJJ&lt;/p&gt;&lt;p style=&quot;margin:0px;margin-left:8px;&quot;&gt;matrNr = &quot;00-000000&quot;&lt;/p&gt;" style="verticalAlign=top;align=left;overflow=fill;fontSize=12;fontFamily=Helvetica;html=1;" vertex="1" parent="1">
          <mxGeometry x="40" y="40" width="160" height="90" as="geometry" />
        </mxCell>
        <mxCell id="BESosxewP5LfGgsGNC5o-9" value="" style="edgeStyle=none;rounded=0;orthogonalLoop=1;jettySize=auto;html=1;startArrow=none;startFill=0;endArrow=none;endFill=0;strokeWidth=1;" edge="1" parent="1" source="BESosxewP5LfGgsGNC5o-5" target="BESosxewP5LfGgsGNC5o-6">
          <mxGeometry relative="1" as="geometry" />
        </mxCell>
        <mxCell id="BESosxewP5LfGgsGNC5o-10" style="edgeStyle=none;rounded=0;orthogonalLoop=1;jettySize=auto;html=1;startArrow=none;startFill=0;endArrow=none;endFill=0;strokeWidth=1;exitX=1;exitY=0.75;exitDx=0;exitDy=0;entryX=0;entryY=0.25;entryDx=0;entryDy=0;" edge="1" parent="1" source="BESosxewP5LfGgsGNC5o-5" target="BESosxewP5LfGgsGNC5o-7">
          <mxGeometry relative="1" as="geometry" />
        </mxCell>
        <mxCell id="BESosxewP5LfGgsGNC5o-5" value="&lt;p style=&quot;margin:0px;margin-top:4px;text-align:center;text-decoration:underline;&quot;&gt;&lt;b&gt;saal:Arbeitsplätze&lt;/b&gt;&lt;/p&gt;&lt;hr&gt;&lt;p style=&quot;margin:0px;margin-left:8px;&quot;&gt;name = &quot;Saal 1 + 2&quot;&lt;br&gt;semester = Sommer&quot;&lt;/p&gt;&lt;p style=&quot;margin:0px;margin-left:8px;&quot;&gt;stunden = &quot;1.0&quot;&lt;/p&gt;" style="verticalAlign=top;align=left;overflow=fill;fontSize=12;fontFamily=Helvetica;html=1;" vertex="1" parent="1">
          <mxGeometry x="240" y="40" width="160" height="90" as="geometry" />
        </mxCell>
        <mxCell id="BESosxewP5LfGgsGNC5o-6" value="&lt;p style=&quot;margin:0px;margin-top:4px;text-align:center;text-decoration:underline;&quot;&gt;&lt;b&gt;Saal1:Arbeitsplatz&lt;/b&gt;&lt;/p&gt;&lt;hr&gt;&lt;p style=&quot;margin:0px;margin-left:8px;&quot;&gt;bezeichnung = &quot;Saal 1&quot;&lt;br&gt;sitzplaetze = &quot;50&quot;&lt;/p&gt;&lt;p style=&quot;margin:0px;margin-left:8px;&quot;&gt;&lt;br&gt;&lt;/p&gt;" style="verticalAlign=top;align=left;overflow=fill;fontSize=12;fontFamily=Helvetica;html=1;" vertex="1" parent="1">
          <mxGeometry x="440" y="40" width="160" height="90" as="geometry" />
        </mxCell>
        <mxCell id="BESosxewP5LfGgsGNC5o-7" value="&lt;p style=&quot;margin:0px;margin-top:4px;text-align:center;text-decoration:underline;&quot;&gt;&lt;b&gt;Saal2:Arbeitsplatz&lt;/b&gt;&lt;/p&gt;&lt;hr&gt;&lt;p style=&quot;margin:0px;margin-left:8px;&quot;&gt;bezeichnung = &quot;Saal 2&quot;&lt;br&gt;sitzplaetze = &quot;50&quot;&lt;/p&gt;&lt;p style=&quot;margin:0px;margin-left:8px;&quot;&gt;&lt;br&gt;&lt;/p&gt;" style="verticalAlign=top;align=left;overflow=fill;fontSize=12;fontFamily=Helvetica;html=1;" vertex="1" parent="1">
          <mxGeometry x="440" y="160" width="160" height="90" as="geometry" />
        </mxCell>
      </root>
    </mxGraphModel>
  </diagram>
</mxfile>
